<svg xmlns="http://www.w3.org/2000/svg" width="44" height="44" viewBox="0 0 44 44">
    <defs>
        <style>
            .prefix__cls-2{fill:#03222f}
        </style>
    </defs>
    <g id="prefix__Group_9870" data-name="Group 9870" transform="translate(7 -1779.999)">
        <path id="prefix__Rectangle_3328" d="M0 0H44V44H0z" data-name="Rectangle 3328" transform="translate(-7 1779.999)" style="fill:none"/>
        <g id="prefix__Check_list" data-name="Check list" transform="translate(-44.654 1609.086)">
            <path id="prefix__Path_5714" d="M48.189 184.184v6.666a.668.668 0 0 0 .36.593l5.334 2.759a.633.633 0 0 0 .306.075.668.668 0 0 0 .3-.072l5.333-2.693a.668.668 0 0 0 .367-.6v-6.733a.667.667 0 0 0-.369-.6l-5.333-2.667a.665.665 0 0 0-.6 0l-5.333 2.667a.665.665 0 0 0-.365.605zm1.334 1.078l1.334.667v2.255h1.333V186.6l1.332.667v5.255l-4-2.067zm5.333 7.267v-5.267l4-2v5.245zm-.667-10.267l3.843 1.921-3.843 1.921-1.176-.588 1.475-.734-.6-1.192-2.368 1.181-1.176-.588z" class="prefix__cls-2" data-name="Path 5714" transform="translate(.798 1.396)"/>
            <path id="prefix__Path_5715" d="M60.194 185.019h5.334a.667.667 0 1 0 0-1.334h-5.334a.667.667 0 0 0 0 1.334z" class="prefix__cls-2" data-name="Path 5715" transform="translate(2.793 1.895)"/>
            <path id="prefix__Path_5716" d="M60.194 187.287h5.334a.667.667 0 0 0 0-1.334h-5.334a.667.667 0 0 0 0 1.334z" class="prefix__cls-2" data-name="Path 5716" transform="translate(2.793 2.294)"/>
            <path id="prefix__Path_5717" d="M60.194 189.553h5.334a.666.666 0 1 0 0-1.332h-5.334a.666.666 0 0 0 0 1.332z" class="prefix__cls-2" data-name="Path 5717" transform="translate(2.793 2.693)"/>
            <path id="prefix__Path_5718" d="M73.653 175.58h-8v-.667a.667.667 0 0 0-.667-.667h-3.692a2.664 2.664 0 0 0-4.614 0h-3.693a.666.666 0 0 0-.667.667v.667h-8a.666.666 0 0 0-.667.667v36a.666.666 0 0 0 .667.667h29.333a.667.667 0 0 0 .667-.667v-36a.667.667 0 0 0-.667-.667zm-20 0h3.453a.666.666 0 0 0 .63-.45 1.326 1.326 0 0 1 2.5 0 .668.668 0 0 0 .631.45h3.453v4H53.654zm-.667 5.334h12a.667.667 0 0 0 .667-.667v-.667h4.667v24h-4.667a.667.667 0 0 0-.667.667v4.667H47.653V179.58h4.667v.667a.666.666 0 0 0 .667.667zm16.39 24l-3.057 3.057v-3.057zm3.609 6.666h-28v-34.667h7.334v1.334h-5.332a.667.667 0 0 0-.667.667v30.667a.666.666 0 0 0 .667.666h18.666a.662.662 0 0 0 .472-.2l5.333-5.333a.67.67 0 0 0 .2-.472v-25.328a.667.667 0 0 0-.667-.667h-5.338v-1.334h7.333z" class="prefix__cls-2" data-name="Path 5718"/>
            <path id="prefix__Path_5719" d="M56.456 195.724l-1.6 1.2v-.666a.666.666 0 0 0-.667-.667h-5.333a.666.666 0 0 0-.667.667v5.333a.667.667 0 0 0 .667.667h5.333a.667.667 0 0 0 .667-.667v-3l2.4-1.8a.667.667 0 0 0-.8-1.067zm-2.934 5.2h-4v-4h4v1l-1.937 1.453-.924-.925a.667.667 0 0 0-.96.927l.016.016 1.334 1.334a.668.668 0 0 0 .871.062l1.6-1.2z" class="prefix__cls-2" data-name="Path 5719" transform="translate(.798 3.99)"/>
            <path id="prefix__Path_5720" d="M61.359 197.858h-4a.667.667 0 0 0 0 1.334h4a.667.667 0 0 0 0-1.334z" class="prefix__cls-2" data-name="Path 5720" transform="translate(2.294 4.389)"/>
            <path id="prefix__Path_5721" d="M60.027 200.126H57.36a.667.667 0 1 0 0 1.333h2.667a.667.667 0 0 0 0-1.333z" class="prefix__cls-2" data-name="Path 5721" transform="translate(2.294 4.788)"/>
        </g>
    </g>
</svg>
