<svg xmlns="http://www.w3.org/2000/svg" width="44" height="44" viewBox="0 0 44 44">
    <defs>
        <style>
            .prefix__cls-2{fill:#03222f}
        </style>
    </defs>
    <g id="prefix__Group_9867" data-name="Group 9867" transform="translate(-71 -1611.999)">
        <path id="prefix__Rectangle_3333" d="M0 0H44V44H0z" data-name="Rectangle 3333" transform="translate(71 1611.999)" style="fill:none"/>
        <g id="prefix__Group_9863" data-name="Group 9863" transform="translate(33.315 1265.34)">
            <path id="prefix__Path_5738" d="M45.685 371.339c-2.982 0-6 .916-6 2.666v8c0 1.751 3.017 2.667 6 2.667s6-.916 6-2.667v-8c0-1.75-3.018-2.666-6-2.666zm0 1.332c3.032 0 4.667.947 4.667 1.333s-1.636 1.333-4.667 1.333-4.666-.947-4.666-1.333 1.635-1.333 4.666-1.333zm0 10.667c-3.03 0-4.666-.947-4.666-1.333v-.932a10.558 10.558 0 0 0 4.666.932 10.563 10.563 0 0 0 4.667-.932V382c0 .391-1.636 1.338-4.667 1.338zm0-2.666c-3.03 0-4.666-.947-4.666-1.333v-.934a10.576 10.576 0 0 0 4.666.934 10.581 10.581 0 0 0 4.667-.934v.934c0 .387-1.636 1.333-4.667 1.333zm0-2.667c-3.03 0-4.666-.947-4.666-1.333v-.934a10.575 10.575 0 0 0 4.666.934 10.58 10.58 0 0 0 4.667-.934v.934c0 .387-1.636 1.333-4.667 1.333z" class="prefix__cls-2" data-name="Path 5738" transform="translate(0 3.989)"/>
            <path id="prefix__Path_5739" d="M57.591 366.8c-2.982 0-6 .916-6 2.667V382.8c0 1.751 3.017 2.667 6 2.667s6-.916 6-2.667v-13.33c-.001-1.751-3.018-2.67-6-2.67zm0 1.333c3.032 0 4.666.947 4.666 1.333s-1.635 1.333-4.666 1.333-4.667-.947-4.667-1.333 1.635-1.329 4.667-1.329zm0 16c-3.032 0-4.667-.947-4.667-1.333v-.932a10.564 10.564 0 0 0 4.667.932 10.555 10.555 0 0 0 4.666-.932v.932c0 .389-1.635 1.336-4.666 1.336zm0-2.666c-3.032 0-4.667-.947-4.667-1.333v-.934a10.58 10.58 0 0 0 4.667.934 10.572 10.572 0 0 0 4.666-.934v.934c0 .39-1.635 1.336-4.666 1.336zm0-2.667c-3.032 0-4.667-.947-4.667-1.333v-.934a10.58 10.58 0 0 0 4.667.934 10.572 10.572 0 0 0 4.666-.934v.934c0 .39-1.635 1.333-4.666 1.333zm0-2.667c-3.032 0-4.667-.947-4.667-1.333v-.932a10.578 10.578 0 0 0 4.667.932 10.57 10.57 0 0 0 4.666-.932v.932c0 .39-1.635 1.336-4.666 1.336zm0-2.667c-3.032 0-4.667-.947-4.667-1.332v-.934a10.58 10.58 0 0 0 4.667.934 10.572 10.572 0 0 0 4.666-.934v.934c0 .389-1.635 1.335-4.666 1.335z" class="prefix__cls-2" data-name="Path 5739" transform="translate(2.094 3.191)"/>
            <path id="prefix__Path_5740" d="M69.5 360c-2.982 0-6 .916-6 2.667V384c0 1.751 3.017 2.667 6 2.667s6-.916 6-2.667v-21.333c0-1.751-3.022-2.667-6-2.667zm0 1.333c3.032 0 4.667.947 4.667 1.333S72.527 364 69.5 364s-4.666-.947-4.666-1.333 1.631-1.334 4.666-1.334zm0 24c-3.03 0-4.666-.947-4.666-1.333v-.932a12.143 12.143 0 0 0 9.333 0V384c-.004.386-1.64 1.333-4.667 1.333zm0-2.666c-3.03 0-4.666-.947-4.666-1.333v-.934a12.129 12.129 0 0 0 9.333 0v.934c-.004.386-1.64 1.333-4.667 1.333zm0-2.667c-3.03 0-4.666-.947-4.666-1.333v-.934a12.129 12.129 0 0 0 9.333 0v.934c-.004.386-1.64 1.333-4.667 1.333zm0-2.667c-3.03 0-4.666-.947-4.666-1.333v-.932a12.143 12.143 0 0 0 9.333 0V376c-.004.386-1.64 1.333-4.667 1.333zm0-2.667c-3.03 0-4.666-.947-4.666-1.332v-.934a12.129 12.129 0 0 0 9.333 0v.934c-.004.385-1.64 1.332-4.667 1.332zm0-2.666c-3.03 0-4.666-.947-4.666-1.333v-.934a12.129 12.129 0 0 0 9.333 0v.934c-.004.387-1.64 1.333-4.667 1.333zm0-2.667c-3.03 0-4.666-.947-4.666-1.333v-.933a12.143 12.143 0 0 0 9.333 0V368c-.004.387-1.64 1.333-4.667 1.333zm0-2.667c-3.03 0-4.666-.947-4.666-1.333v-.933a12.143 12.143 0 0 0 9.333 0v.932c-.004.388-1.64 1.334-4.667 1.334z" class="prefix__cls-2" data-name="Path 5740" transform="translate(4.189 1.995)"/>
            <path id="prefix__Path_5741" d="M72.318 348.661v1.333h5.056l-12.665 12.667H50.734l-10.856 9.5.88 1 10.477-9.169H65.26l13.057-13.057V356h1.333v-7.334z" class="prefix__cls-2" data-name="Path 5741" transform="translate(.034)"/>
        </g>
    </g>
</svg>
