<svg xmlns="http://www.w3.org/2000/svg" id="prefix__icons_company_grey" width="60" height="60" data-name="icons company grey" viewBox="0 0 60 60">
    <defs>
        <style>
            .prefix__cls-2{fill:#fff}
        </style>
    </defs>
    <path id="prefix__Path_4553" d="M0 0v60h60V0zm56.25 56.25H3.75V3.75h52.5z" data-name="Path 4553" style="fill:none"/>
    <path id="prefix__Path_4554" d="M45.25 4H19a3.75 3.75 0 0 0-3.75 3.75v5.625h-7.5A3.75 3.75 0 0 0 4 17.125V45.25A3.75 3.75 0 0 0 7.75 49h37.5A3.75 3.75 0 0 0 49 45.25V7.75A3.75 3.75 0 0 0 45.25 4zM7.75 45.25V17.125h7.5V45.25zm20.625 0V41.5h7.5v3.75zm7.5-7.5h-7.5V34h7.5zm9.375 7.5h-5.625V32.125a1.875 1.875 0 0 0-1.875-1.875H26.5a1.875 1.875 0 0 0-1.875 1.875V45.25H19V7.75h26.25z" class="prefix__cls-2" data-name="Path 4554" transform="translate(3.5 3.5)"/>
    <path id="prefix__Path_4555" d="M22.5 23a7.5 7.5 0 1 0-7.5-7.5 7.5 7.5 0 0 0 7.5 7.5zm0-11.25a3.75 3.75 0 1 1-3.75 3.75 3.75 3.75 0 0 1 3.75-3.75z" class="prefix__cls-2" data-name="Path 4555" transform="translate(13.125 7)"/>
</svg>
