<svg xmlns="http://www.w3.org/2000/svg" width="44" height="44" viewBox="0 0 44 44">
    <defs>
        <style>
            .prefix__cls-1{fill:#03222f}
        </style>
    </defs>
    <g id="prefix__Group_9871" data-name="Group 9871" transform="translate(-64 -1819)">
        <g id="prefix__Group_9859" data-name="Group 9859" transform="translate(26.315 1580.055)">
            <path id="prefix__Path_5722" d="M41.953 249.449h1.333v1.333h-1.333z" class="prefix__cls-1" data-name="Path 5722" transform="translate(.399 1.496)"/>
            <path id="prefix__Path_5723" d="M44.22 249.449h1.333v1.333H44.22z" class="prefix__cls-1" data-name="Path 5723" transform="translate(.798 1.496)"/>
            <path id="prefix__Path_5724" d="M46.488 249.449h1.333v1.333h-1.333z" class="prefix__cls-1" data-name="Path 5724" transform="translate(1.197 1.496)"/>
            <path id="prefix__Path_5725" d="M77.685 240.945H47.018a2 2 0 0 0-2 2v6h-3.333a2 2 0 0 0-2 2v24a2 2 0 0 0 2 2h5.333v-1.333h-5.333a.667.667 0 0 1-.667-.667v-20.667h32v20.667a.666.666 0 0 1-.666.667h-5.334v1.333h5.334a2 2 0 0 0 2-2v-6h3.334a2 2 0 0 0 2-2v-24a2 2 0 0 0-2.001-2zm-36.666 12v-2a.667.667 0 0 1 .667-.667h30.666a.666.666 0 0 1 .666.667v2zm37.333 14a.667.667 0 0 1-.667.667h-3.334v-16.667a2 2 0 0 0-2-2h-26v-2.667h32zm-32-22v-2a.667.667 0 0 1 .667-.667h30.666a.667.667 0 0 1 .667.667v2z" class="prefix__cls-1" data-name="Path 5725"/>
            <path id="prefix__Path_5726" d="M46.488 242.646h1.333v1.333h-1.333z" class="prefix__cls-1" data-name="Path 5726" transform="translate(1.197 .299)"/>
            <path id="prefix__Path_5727" d="M48.756 242.646h1.333v1.333h-1.333z" class="prefix__cls-1" data-name="Path 5727" transform="translate(1.596 .299)"/>
            <path id="prefix__Path_5728" d="M51.024 242.646h1.332v1.333h-1.332z" class="prefix__cls-1" data-name="Path 5728" transform="translate(1.995 .299)"/>
            <path id="prefix__Path_5729" d="M65.921 265.953a.667.667 0 0 0-.667-.667h-2.5c-.039-.1-.076-.188-.116-.28l1.77-1.769a.668.668 0 0 0 0-.943l-2.827-2.827a.668.668 0 0 0-.943 0l-1.77 1.77c-.091-.039-.182-.078-.279-.116v-2.5a.667.667 0 0 0-.667-.667h-4a.667.667 0 0 0-.667.667v2.5l-.279.116-1.77-1.77a.687.687 0 0 0-.942 0l-2.827 2.827a.668.668 0 0 0 0 .943l1.77 1.769c-.04.092-.079.183-.116.28h-2.5a.667.667 0 0 0-.667.667v4a.666.666 0 0 0 .667.667h2.5q.056.145.116.279l-1.77 1.771a.666.666 0 0 0 0 .942l2.827 2.827a.666.666 0 0 0 .942 0l1.77-1.77q.136.06.279.116v2.5a.667.667 0 0 0 .667.667h4a.667.667 0 0 0 .667-.667v-2.5c.1-.038.188-.076.279-.116l1.77 1.77a.686.686 0 0 0 .943 0l2.827-2.827a.666.666 0 0 0 0-.942l-1.77-1.771c.04-.089.078-.182.116-.279h2.5a.666.666 0 0 0 .667-.667zm-1.333 3.334h-2.306a.666.666 0 0 0-.635.462 5.5 5.5 0 0 1-.4.964.666.666 0 0 0 .113.791l1.632 1.635-1.88 1.885-1.636-1.636a.667.667 0 0 0-.791-.114 5.323 5.323 0 0 1-.964.4.668.668 0 0 0-.462.635v2.307h-2.671v-2.307a.667.667 0 0 0-.462-.635 5.313 5.313 0 0 1-.963-.4.668.668 0 0 0-.793.114l-1.636 1.636-1.879-1.885 1.635-1.635a.666.666 0 0 0 .113-.791 5.5 5.5 0 0 1-.4-.964.664.664 0 0 0-.637-.462h-2.312v-2.667h2.307a.665.665 0 0 0 .634-.463 5.486 5.486 0 0 1 .4-.963.666.666 0 0 0-.113-.791l-1.631-1.636 1.883-1.884 1.636 1.636a.668.668 0 0 0 .793.113 5.4 5.4 0 0 1 .963-.4.666.666 0 0 0 .459-.635v-2.306h2.667v2.306a.668.668 0 0 0 .462.635 5.407 5.407 0 0 1 .964.4.666.666 0 0 0 .791-.113l1.636-1.636 1.88 1.884-1.631 1.633a.667.667 0 0 0-.114.791 5.487 5.487 0 0 1 .4.963.667.667 0 0 0 .639.463h2.306z" class="prefix__cls-1" data-name="Path 5729" transform="translate(1.097 2.992)"/>
            <path id="prefix__Path_5730" d="M54.924 263.622a3.333 3.333 0 1 0 3.334 3.334 3.333 3.333 0 0 0-3.334-3.334zm0 5.333a2 2 0 1 1 2-2 2 2 0 0 1-2 2z" class="prefix__cls-1" data-name="Path 5730" transform="translate(2.094 3.989)"/>
            <path id="prefix__Path_5731" d="M47.622 253.417h16v1.333h-16z" class="prefix__cls-1" data-name="Path 5731" transform="translate(1.396 2.194)"/>
            <path id="prefix__Path_5732" d="M47.622 255.685h16v1.333h-16z" class="prefix__cls-1" data-name="Path 5732" transform="translate(1.396 2.593)"/>
            <path id="prefix__Path_5733" d="M47.286 260.419v-1.332h-5.333v12h3.333v-1.333h-2v-9.333z" class="prefix__cls-1" data-name="Path 5733" transform="translate(.399 3.191)"/>
            <path id="prefix__Path_5734" d="M62.362 260.419h4v9.333h-2v1.333H67.7v-12h-5.338z" class="prefix__cls-1" data-name="Path 5734" transform="translate(3.989 3.191)"/>
        </g>
        <path id="prefix__Rectangle_3329" d="M0 0H44V44H0z" data-name="Rectangle 3329" transform="translate(64 1819)" style="fill:none"/>
    </g>
</svg>
