<svg xmlns="http://www.w3.org/2000/svg" id="prefix__icons_fleet_grey" width="60" height="60" data-name="icons fleet grey" viewBox="0 0 60 60">
    <path id="prefix__Path_138" d="M0 0v60h60V0zm56.25 56.25H3.75V3.75h52.5z" data-name="Path 138" style="fill:none"/>
    <path id="prefix__Path_139" d="M52.175 15.788a5.625 5.625 0 0 0-5.437-4.163H39.5V9.45A3.45 3.45 0 0 0 36.05 6H5.45A3.45 3.45 0 0 0 2 9.45v24.975a3.45 3.45 0 0 0 3.45 3.45h2.437a7.5 7.5 0 0 0 14.475 0h11.775a7.5 7.5 0 0 0 14.475 0h2.138a3.75 3.75 0 0 0 3.75-3.75V24.75zM15.125 39.75a3.75 3.75 0 1 1 3.75-3.75 3.75 3.75 0 0 1-3.75 3.75zm0-11.25a7.5 7.5 0 0 0-7.238 5.625H5.75V9.75h30v21.338a7.5 7.5 0 0 0-1.613 3.037H22.362a7.5 7.5 0 0 0-7.237-5.625zm26.25 11.25a3.75 3.75 0 1 1 3.75-3.75 3.75 3.75 0 0 1-3.75 3.75zm9.375-5.625h-2.137a7.35 7.35 0 0 0-9.113-5.363V15.375h7.238a1.875 1.875 0 0 1 1.875 1.388l1.575 6.112H43.25v3.75h7.5z" data-name="Path 139" transform="translate(1.75 5.25)" style="fill:#fff"/>
</svg>
