<svg xmlns="http://www.w3.org/2000/svg" width="44" height="44" viewBox="0 0 44 44">
    <defs>
        <style>
            .prefix__cls-2{fill:#03222f}
        </style>
    </defs>
    <g id="prefix__Group_9869" data-name="Group 9869" transform="translate(-64 -2063)">
        <path id="prefix__Rectangle_3332" d="M0 0H44V44H0z" data-name="Rectangle 3332" transform="translate(64 2063)" style="fill:none"/>
        <g id="prefix__Product" transform="translate(26.315 1580.275)">
            <path id="prefix__Path_5742" d="M49.685 517.185h-.758a4.66 4.66 0 0 0 .758-2.545v-1.677a3.335 3.335 0 0 0-.181-1.084l-2.061-5.995a2 2 0 0 0-1.357-1.4l1.256-4.7a1.977 1.977 0 0 0-.793-2.161 1.976 1.976 0 0 0-1.134-.36 1.977 1.977 0 0 0-1.924 1.45l-3.557 10.937a3.364 3.364 0 0 0-.092 1.72l1.029 4a4.644 4.644 0 0 1 .147 1.159v.659h-.667a.666.666 0 0 0-.667.666v4a.667.667 0 0 0 .667.667h9.333a.667.667 0 0 0 .667-.667v-4a.666.666 0 0 0-.666-.669zm-7.522-2.154l-1.021-3.959a2 2 0 0 1 .06-1.011l3.569-10.969a.658.658 0 0 1 .807-.464h.007a.6.6 0 0 1 .2.1.656.656 0 0 1 .267.72l-1.377 5.14a1.981 1.981 0 0 0-1.167 1.813 1.834 1.834 0 0 0 .067.517l1.206 4.508a.667.667 0 1 0 1.288-.346l-1.208-4.524a.538.538 0 0 1-.02-.156.649.649 0 0 1 .442-.621l.088-.028a.676.676 0 0 1 .793.526l2.075 6.039a1.994 1.994 0 0 1 .108.649v1.677a3.317 3.317 0 0 1-.56 1.849l-.463.7h-4.972v-.659a6.058 6.058 0 0 0-.189-1.502zm6.856 6.154h-8v-2.667h8z" class="prefix__cls-2" data-name="Path 5742" transform="translate(0 2.207)"/>
            <path id="prefix__Path_5743" d="M64.63 517.85v4a.667.667 0 0 0 .667.667h9.333a.667.667 0 0 0 .667-.667v-4a.666.666 0 0 0-.667-.666h-.667v-.659a4.671 4.671 0 0 1 .147-1.163l1.028-3.995a3.355 3.355 0 0 0-.091-1.721l-3.557-10.928a1.978 1.978 0 0 0-1.92-1.448 1.951 1.951 0 0 0-.534.074 1.866 1.866 0 0 0-.6.286 1.979 1.979 0 0 0-.794 2.161l1.254 4.7a2 2 0 0 0-1.357 1.4l-2.063 6a3.339 3.339 0 0 0-.18 1.081v1.677a4.651 4.651 0 0 0 .758 2.545H65.3a.666.666 0 0 0-.67.656zm8-1.324v.659h-4.977l-.463-.7a3.317 3.317 0 0 1-.56-1.849v-1.677a2 2 0 0 1 .108-.649l2.076-6.039a.674.674 0 0 1 .791-.526c.011 0 .074.023.089.028a.649.649 0 0 1 .442.621.538.538 0 0 1-.02.156l-1.211 4.524a.667.667 0 1 0 1.289.346l1.206-4.508a1.833 1.833 0 0 0 .066-.517 1.978 1.978 0 0 0-1.164-1.813l-1.376-5.14a.657.657 0 0 1 .267-.72.576.576 0 0 1 .2-.1.657.657 0 0 1 .811.456v.007l3.569 10.969a2.008 2.008 0 0 1 .059 1.011l-1.02 3.959a6 6 0 0 0-.182 1.502zm-6.666 1.991h8v2.667h-8z" class="prefix__cls-2" data-name="Path 5743" transform="translate(4.388 2.207)"/>
            <path id="prefix__Path_5744" d="M69.322 489.446l-10.667-4.666a.669.669 0 0 0-.534 0l-10.667 4.666a.667.667 0 0 0-.4.612v13.332a.666.666 0 0 0 .365.594l10.667 5.427a.654.654 0 0 0 .3.073.675.675 0 0 0 .3-.071l10.667-5.36a.668.668 0 0 0 .368-.6v-13.4a.667.667 0 0 0-.399-.607zm-10.934-3.328l9 3.939-9 3.939-2.34-1.024 3.561-1.558a.667.667 0 0 0 0-1.222l-2.861-1.247a.657.657 0 0 0-.533 0L51.528 491l-2.14-.937zm-6 6.709l1.332.583v2.9l-1.332-.667zm.8-1.1l3.29-1.438 1.194.521-3.284 1.439zm-4.8-.647l2.667 1.168v3.813a.666.666 0 0 0 .368.6l2.667 1.333a.666.666 0 0 0 .964-.6v-3.4l2.667 1.166v12.57l-9.333-4.747zm10.667 16.659V495.16l9.333-4.084v11.97z" class="prefix__cls-2" data-name="Path 5744" transform="translate(1.297)"/>
            <path id="prefix__Path_5745" d="M60.866 500.174l-2.672 1.343a.667.667 0 0 0 .6 1.191l2.672-1.342a.667.667 0 1 0-.6-1.192z" class="prefix__cls-2" data-name="Path 5745" transform="translate(3.192 2.705)"/>
            <path id="prefix__Path_5746" d="M58.494 500.509a.676.676 0 0 0 .3-.071l2.633-1.324a.667.667 0 0 0-.6-1.191l-2.633 1.323a.667.667 0 0 0 .3 1.263z" class="prefix__cls-2" data-name="Path 5746" transform="translate(3.191 2.309)"/>
        </g>
    </g>
</svg>
