<svg xmlns="http://www.w3.org/2000/svg" width="44" height="44" viewBox="0 0 44 44">
    <defs>
        <style>
            .prefix__cls-2{fill:#03222f}
        </style>
    </defs>
    <g id="prefix__Group_9868" data-name="Group 9868" transform="translate(-64 -1682)">
        <path id="prefix__Rectangle_3327" d="M0 0H44V44H0z" data-name="Rectangle 3327" transform="translate(64 1682)" style="fill:none"/>
        <g id="prefix__Group_9856" data-name="Group 9856" transform="translate(26.315 1578.707)">
            <path id="prefix__Path_5709" d="M78.021 107.293h-4a.666.666 0 0 0-.667.667v.254l-1.421-.71a2 2 0 0 0-.894-.21h-9.77a2 2 0 0 0-1.248.439l-2.788 2.227H46.021a.667.667 0 0 0-.667.667v10.667a.667.667 0 0 0 .667.667h20a.667.667 0 0 0 .667-.667v-5.034a6.017 6.017 0 0 0 5.3-.433l.891-.533h.48v.667a.667.667 0 0 0 .667.667h4a.667.667 0 0 0 .667-.667v-8a.666.666 0 0 0-.672-.668zm-31.334 13.333v-9.333H62.64l-.747.748a2 2 0 0 0 2.828 2.828l.633-.633v6.39zm26-6.666a.656.656 0 0 0-.34.1l-1.047.628a4.687 4.687 0 0 1-4.16.321l-.449-.182V112.9l.847-.847.345.114a4.692 4.692 0 0 0 2.952 0l.734-.245a.667.667 0 0 0-.422-1.266l-.733.246a3.366 3.366 0 0 1-2.108 0l-.734-.246a.666.666 0 0 0-.682.161l-1.332 1.333-1.774 1.773a.667.667 0 1 1-.943-.943l2.591-2.592a.666.666 0 0 0-.942-.942l-.51.509h-4.6l1.484-1.187a.661.661 0 0 1 .416-.147h9.76a.683.683 0 0 1 .3.071l2.017 1.009v4.25zm4.671 1.333h-2.671v-6.667h2.667z" class="prefix__cls-2" data-name="Path 5709" transform="translate(.997)"/>
            <path id="prefix__Path_5710" d="M54.724 113.261a.667.667 0 0 1 .667.667h1.333a2 2 0 0 0-1.333-1.878v-.789h-1.334v.789a2 2 0 0 0 .667 3.878.667.667 0 1 1-.667.667h-1.333a2 2 0 0 0 1.333 1.877v.789h1.333v-.789a2 2 0 0 0-.667-3.877.667.667 0 1 1 0-1.333z" class="prefix__cls-2" data-name="Path 5710" transform="translate(2.294 .698)"/>
            <path id="prefix__Path_5711" d="M51.323 114.1H49.99a.667.667 0 0 0 0 1.333h1.333a.667.667 0 0 0 0-1.333z" class="prefix__cls-2" data-name="Path 5711" transform="translate(1.695 1.197)"/>
            <path id="prefix__Path_5712" d="M59.26 114.1h-1.333a.667.667 0 0 0 0 1.333h1.333a.667.667 0 1 0 0-1.333z" class="prefix__cls-2" data-name="Path 5712" transform="translate(3.092 1.197)"/>
            <path id="prefix__Path_5713" d="M67.324 129.732a1.993 1.993 0 0 0-2.719-.742l-.015.01-4.284 2.467a2 2 0 0 0-1.954-1.582h-5.133l-.134-.089a7.312 7.312 0 0 0-8.067-.045v-.533a.666.666 0 0 0-.666-.667h-4a.667.667 0 0 0-.667.667v8a.667.667 0 0 0 .667.667h4a.666.666 0 0 0 .666-.667v-.091l.623.413a1.982 1.982 0 0 0 1.117.345h9.9a1.947 1.947 0 0 0 1-.267l8.933-5.153a2.015 2.015 0 0 0 1-1.738 1.98 1.98 0 0 0-.267-.995zm-23.639 6.818h-2.667v-6.666h2.667zm22.239-5.243l-8.943 5.159a.611.611 0 0 1-.323.085h-9.9a.655.655 0 0 1-.372-.115l-1.369-.909v-4.309a.671.671 0 0 0 .37-.112l.3-.2a5.982 5.982 0 0 1 6.657 0l.3.2a.665.665 0 0 0 .369.112h5.333a.666.666 0 1 1 0 1.332h-4a.667.667 0 0 0 0 1.333h4a1.978 1.978 0 0 0 1.321-.509l5.591-3.224a.646.646 0 0 1 .5-.066.659.659 0 0 1 .407.314.65.65 0 0 1 .091.326.677.677 0 0 1-.332.582z" class="prefix__cls-2" data-name="Path 5713" transform="translate(0 3.739)"/>
        </g>
    </g>
</svg>
