<svg xmlns="http://www.w3.org/2000/svg" width="44" height="44" viewBox="0 0 44 44">
    <defs>
        <style>
            .prefix__cls-2{fill:#03222f}
        </style>
    </defs>
    <g id="prefix__Group_9866" data-name="Group 9866" transform="translate(-67 -1996)">
        <path id="prefix__Rectangle_3330" d="M0 0H44V44H0z" data-name="Rectangle 3330" transform="translate(67 1996)" style="fill:none"/>
        <g id="prefix__Group_9861" data-name="Group 9861" transform="translate(29.315 1581.067)">
            <path id="prefix__Path_5735" d="M65.012 433.566a3.287 3.287 0 1 1 3.288-3.286 3.287 3.287 0 0 1-3.288 3.286zm0-5.259a1.972 1.972 0 1 0 1.972 1.972 1.972 1.972 0 0 0-1.972-1.971z" class="prefix__cls-2" data-name="Path 5735" transform="translate(3.877 1.77)"/>
            <path id="prefix__Path_5736" d="M49.36 433.566a3.287 3.287 0 1 1 3.287-3.287 3.287 3.287 0 0 1-3.287 3.287zm0-5.259a1.972 1.972 0 1 0 1.972 1.972 1.972 1.972 0 0 0-1.972-1.971z" class="prefix__cls-2" data-name="Path 5736" transform="translate(1.124 1.77)"/>
            <path id="prefix__Path_5737" d="M72.833 439.571l6.267-5.7a1.837 1.837 0 0 0-2.454-2.733l-4.719 4.195h-6.636l-4.947 6.048v-16.562h6.573v2.629h10.832L76.17 423.5l1.578-3.944H70.2v-2.629H59.029v24.453l-4.947-6.048h-6.635l-4.72-4.2a1.838 1.838 0 0 0-2.455 2.734l6.268 5.7v15.486h-6.574v1.315h39.44v-1.315h-6.573zm-2.629-18.7h5.6l-1.049 2.629 1.051 2.629h-7.574v-1.315H70.2zm-9.86-2.629h8.545v5.258h-8.545zm-7.231 36.811h-1.972v-9.2h-1.315v9.2h-1.972V438.99l-6.7-6.085a.523.523 0 0 1 .7-.778l5.093 4.525h6.511l4.888 5.974a.535.535 0 1 1-.82.687l-4.414-5.148zm11.832 0H54.428v-13.341l2.1 2.452a1.849 1.849 0 0 0 2.432.333c.025-.016.046-.038.069-.055v5.358h1.315v-5.355c.025.019.047.041.073.059a1.851 1.851 0 0 0 2.427-.335l2.1-2.454zm6.573 0h-1.972v-9.2h-1.314v9.2H66.26v-16.89l-4.414 5.149a.531.531 0 0 1-.7.094.524.524 0 0 1-.232-.363.531.531 0 0 1 .114-.416l4.888-5.976h6.512l5.091-4.526a.52.52 0 0 1 .781.1.521.521 0 0 1-.082.671l-6.7 6.089z" class="prefix__cls-2" data-name="Path 5737"/>
        </g>
    </g>
</svg>
