<?xml version="1.0" encoding="windows-1252"?>
<!-- Generator: Adobe Illustrator 22.0.0, SVG Export Plug-In . SVG Version: 6.00 Build 0)  -->
<svg version="1.1" id="Capa_1" xmlns="http://www.w3.org/2000/svg" xmlns:xlink="http://www.w3.org/1999/xlink" x="0px" y="0px" viewBox="0 0 512 512" style="enable-background:new 0 0 512 512;" xml:space="preserve">
<g>
	<g>
		<polygon style="fill:#FDAE02;" points="134.191,162.986 106.667,304.342 134.191,417.03 217.666,472.681 217.666,416.986     271,416.986 271,162.986   "/>
		<polygon style="fill:#FDCB02;" points="0,162.986 0,416.986 134.125,416.986 134.191,417.03 134.191,162.986   "/>
	</g>
	<g>
		<path style="fill:#F7F0EB;" d="M134.191,231.343l-2,17.268l2,8.177c5.187,1.339,8.587,4.698,8.587,9.531    c0,4.981-3.967,8.8-8.587,13.072l-3,17.595l3,7.355h14.155c0-14.636,26.09-18.295,26.09-43.113    C174.436,242.286,157.766,231.836,134.191,231.343z"/>
		<path style="fill:#F7F0EB;" d="M152.323,329.636c0-9.385-7.475-16.384-18.132-16.386l-2,17.986l2,15.104    C144.848,346.338,152.323,338.862,152.323,329.636z"/>
		<path style="fill:#FFFBF5;" d="M116.21,329.636c0,9.227,7.318,16.704,17.977,16.704c0.001,0,0.003,0,0.004,0v-33.09    c-0.001,0-0.003,0-0.004,0C123.528,313.25,116.21,320.25,116.21,329.636z"/>
		<path style="fill:#FFFBF5;" d="M85.188,254.864l23.704,12.727c4.136-7.159,11.295-11.454,19.886-11.454    c1.952,0,3.77,0.226,5.413,0.65v-25.444c-0.582-0.012-1.164-0.024-1.754-0.024C109.051,231.319,93.62,240.706,85.188,254.864z"/>
		<path style="fill:#FFFBF5;" d="M120.028,304.341h14.163v-24.95C127.746,285.353,120.028,292.201,120.028,304.341z"/>
	</g>
	<g>
		<path style="fill:#06B24B;" d="M360.667,39.321l-19.333,156.831l19.333,195.208l9.659-8.374    c15.647-13.564,93.984-81.529,99.655-87.456c27.097-28.32,42.02-65.507,42.02-104.712C512,107.338,444.128,39.412,360.667,39.321z    "/>
		<path style="fill:#1FBD66;" d="M360.5,39.319c-83.538,0-151.5,67.963-151.5,151.5c0,78.474,59.98,143.205,136.5,150.763v62.926    l15.167-13.148V39.321C360.611,39.321,360.556,39.319,360.5,39.319z"/>
	</g>
	<g>
		<polygon style="fill:#F7F0EB;" points="413.773,174.759 392.56,153.546 360.583,185.523 352,217.486 360.583,227.949   "/>
		<polygon style="fill:#FFFBF5;" points="328.44,174.879 307.227,196.093 349.833,238.699 360.583,227.949 360.583,185.523     349.833,196.273   "/>
	</g>
</g>
<g>
</g>
<g>
</g>
<g>
</g>
<g>
</g>
<g>
</g>
<g>
</g>
<g>
</g>
<g>
</g>
<g>
</g>
<g>
</g>
<g>
</g>
<g>
</g>
<g>
</g>
<g>
</g>
<g>
</g>
</svg>