<?xml version="1.0" encoding="iso-8859-1"?>
<!-- Generator: Adobe Illustrator 22.0.0, SVG Export Plug-In . SVG Version: 6.00 Build 0)  -->
<svg version="1.1" id="Capa_1" xmlns="http://www.w3.org/2000/svg" xmlns:xlink="http://www.w3.org/1999/xlink" x="0px" y="0px"
	 viewBox="0 0 512 512" style="enable-background:new 0 0 512 512;" xml:space="preserve">
<g>
	<g>
		<g>
			<path style="fill:#7982E9;" d="M412.241,170.667c0-10.554-1.054-21.037-3.139-31.294l19.424-11.214l-49.449-85.648
				l-19.454,11.231c-15.801-14.018-34.217-24.664-54.174-31.316V0H256l-21.333,170.667L256,341.333h49.449v-22.425
				c19.958-6.653,38.373-17.298,54.174-31.316l19.454,11.231l49.449-85.648l-19.424-11.215
				C411.187,191.704,412.241,181.221,412.241,170.667z"/>
			<path style="fill:#8993ED;" d="M206.551,0v22.424c-19.957,6.653-38.373,17.298-54.174,31.316l-19.454-11.231l-49.449,85.648
				l19.424,11.214c-2.085,10.257-3.139,20.74-3.139,31.294s1.054,21.037,3.139,31.294l-19.424,11.215l49.449,85.648l19.454-11.231
				c15.801,14.018,34.216,24.663,54.174,31.316v22.425H256V0H206.551z"/>
		</g>
		<g>
			<path style="fill:#F7F0EB;" d="M256,102.333l-9.226,68.333L256,239c37.679,0,68.333-30.654,68.333-68.333
				S293.679,102.333,256,102.333z"/>
			<path style="fill:#FFFBF5;" d="M187.667,170.667C187.667,208.346,218.321,239,256,239V102.333
				C218.321,102.333,187.667,132.987,187.667,170.667z"/>
		</g>
	</g>
	<g>
		<g>
			<polygon style="fill:#9CCEFD;" points="452.333,230.5 396.333,224.499 329.101,230.5 338.944,330.667 398.333,335.667 
				452.333,330.667 			"/>
			<polygon style="fill:#E7E7E7;" points="452.333,202.333 326.333,202.333 329.101,230.5 452.333,230.5 			"/>
			<polygon style="fill:#E7E7E7;" points="452.333,330.667 338.944,330.667 352,463.515 490.091,463.515 490.091,341.333 			"/>
		</g>
		<g>
			<polygon style="fill:#FDAE02;" points="356.333,172.667 256,172.667 245.333,320 256,463.515 356.333,463.515 			"/>
			<polygon style="fill:#FDCB02;" points="21.909,172.667 21.909,294.333 31.91,309.333 21.909,324.334 21.909,463.515 256,463.515 
				256,172.667 			"/>
		</g>
		
			<ellipse transform="matrix(0.3827 -0.9239 0.9239 0.3827 -180.008 637.3263)" style="fill:#F7F0EB;" cx="386.909" cy="453.364" rx="43.636" ry="43.636"/>
		<path style="fill:#32393F;" d="M386.909,512c-32.332,0-58.637-26.304-58.637-58.636c0-32.332,26.305-58.636,58.637-58.636
			c32.332,0,58.637,26.304,58.637,58.636C445.546,485.696,419.241,512,386.909,512z M386.909,424.727
			c-15.79,0-28.637,12.846-28.637,28.636c0,15.79,12.847,28.636,28.637,28.636c15.79,0,28.637-12.846,28.637-28.636
			C415.546,437.573,402.699,424.727,386.909,424.727z"/>
		
			<ellipse transform="matrix(0.9239 -0.3827 0.3827 0.9239 -163.9727 82.3804)" style="fill:#FFFBF5;" cx="125.091" cy="453.364" rx="43.636" ry="43.636"/>
		<path style="fill:#474F54;" d="M125.091,512c-32.332,0-58.637-26.304-58.637-58.636c0-32.332,26.305-58.636,58.637-58.636
			c32.332,0,58.637,26.304,58.637,58.636C183.727,485.696,157.423,512,125.091,512z M125.091,424.727
			c-15.79,0-28.637,12.846-28.637,28.636c0,15.79,12.847,28.636,28.637,28.636c15.79,0,28.637-12.846,28.637-28.636
			C153.727,437.573,140.881,424.727,125.091,424.727z"/>
		<polygon style="fill:#FC5B3F;" points="181.394,256.06 160.181,277.273 177.241,294.333 21.909,294.333 21.909,324.333 
			177.241,324.333 160.181,341.393 181.394,362.606 234.667,309.333 		"/>
	</g>
</g>
<g>
</g>
<g>
</g>
<g>
</g>
<g>
</g>
<g>
</g>
<g>
</g>
<g>
</g>
<g>
</g>
<g>
</g>
<g>
</g>
<g>
</g>
<g>
</g>
<g>
</g>
<g>
</g>
<g>
</g>
</svg>
