<?xml version="1.0" encoding="iso-8859-1"?>
<!-- Generator: Adobe Illustrator 22.0.0, SVG Export Plug-In . SVG Version: 6.00 Build 0)  -->
<svg version="1.1" id="Capa_1" xmlns="http://www.w3.org/2000/svg" xmlns:xlink="http://www.w3.org/1999/xlink" x="0px" y="0px"
	 viewBox="0 0 512 512" style="enable-background:new 0 0 512 512;" xml:space="preserve">
<g>
	<g>
		<g>
			<path style="fill:#7982E9;" d="M412.241,170.667c0-10.554-1.054-21.037-3.139-31.294l19.424-11.214l-49.449-85.648
				l-19.454,11.231c-15.801-14.018-34.217-24.664-54.174-31.316V0H256l-21.333,170.667L256,341.333h49.449v-22.425
				c19.958-6.653,38.373-17.298,54.174-31.316l19.454,11.231l49.449-85.648l-19.424-11.215
				C411.188,191.704,412.241,181.221,412.241,170.667z"/>
			<path style="fill:#8993ED;" d="M206.551,0v22.424c-19.957,6.653-38.373,17.298-54.174,31.316l-19.454-11.231l-49.449,85.648
				l19.424,11.214c-2.085,10.257-3.139,20.74-3.139,31.294s1.054,21.037,3.139,31.294l-19.424,11.215l49.449,85.648l19.454-11.231
				c15.801,14.018,34.216,24.663,54.174,31.316v22.425H256V0H206.551z"/>
		</g>
		<g>
			<path style="fill:#F7F0EB;" d="M256,102.333l-9.226,68.333L256,239c37.679,0,68.333-30.654,68.333-68.333
				S293.679,102.333,256,102.333z"/>
			<path style="fill:#FFFBF5;" d="M187.667,170.667C187.667,208.346,218.321,239,256,239V102.333
				C218.321,102.333,187.667,132.987,187.667,170.667z"/>
		</g>
	</g>
	<g>
		<polygon style="fill:#FDAE02;" points="473.667,197.019 256,197.019 234.667,352 256,491.999 345.667,512 473.667,512 		"/>
		<polygon style="fill:#FDCB02;" points="233.27,197.019 213.241,156.96 38.333,156.96 38.333,512 166.333,512 256,491.999 
			256,197.019 		"/>
	</g>
	<g>
		<g>
			<path style="fill:#7982E9;" d="M345.667,490.667c0-49.331-40.044-89.482-89.334-89.663l-6.666,55.922L256.333,512h89.334V490.667
				z"/>
			<path style="fill:#8993ED;" d="M256,401c-49.442,0-89.667,40.224-89.667,89.667V512h90V401.004
				C256.222,401.004,256.111,401,256,401z"/>
		</g>
		<g>
			<path style="fill:#FED2A4;" d="M340.333,357.333c0-46.39-37.652-84.144-84-84.325L239,358.334l17.333,83.324
				C302.681,441.477,340.333,403.723,340.333,357.333z"/>
			<path style="fill:#FFE5C2;" d="M256,273c-46.501,0-84.333,37.832-84.333,84.333c0,46.502,37.832,84.333,84.333,84.333
				c0.112,0,0.221-0.008,0.333-0.008v-168.65C256.221,273.008,256.112,273,256,273z"/>
		</g>
	</g>
</g>
<g>
</g>
<g>
</g>
<g>
</g>
<g>
</g>
<g>
</g>
<g>
</g>
<g>
</g>
<g>
</g>
<g>
</g>
<g>
</g>
<g>
</g>
<g>
</g>
<g>
</g>
<g>
</g>
<g>
</g>
</svg>
